<?xml version="1.0" standalone="no"?>
<!DOCTYPE svg PUBLIC "-//W3C//DTD SVG 20010904//EN"
 "http://www.w3.org/TR/2001/REC-SVG-20010904/DTD/svg10.dtd">
<svg version="1.0" xmlns="http://www.w3.org/2000/svg"
 width="199.000000pt" height="199.000000pt" viewBox="0 0 199.000000 199.000000"
 preserveAspectRatio="xMidYMid meet">
<metadata>
Created by potrace 1.14, written by Peter Selinger 2001-2017
</metadata>
<g transform="translate(0.000000,199.000000) scale(0.100000,-0.100000)"
fill="#000000" stroke="none">
<path d="M855 1804 c-409 -91 -677 -457 -634 -867 19 -187 94 -342 234 -482
72 -73 108 -100 180 -137 116 -60 215 -88 335 -95 222 -13 426 60 586 210 171
159 255 353 256 587 0 143 -23 237 -89 370 -39 79 -63 111 -138 186 -160 161
-321 233 -540 240 -85 3 -141 -1 -190 -12z m269 -84 c32 -5 60 -11 61 -12 2
-2 -21 -53 -51 -115 -30 -61 -66 -154 -80 -205 -14 -51 -27 -99 -30 -106 -5
-18 -24 -5 -24 16 0 36 -55 194 -105 299 l-53 112 46 6 c26 4 52 8 57 10 21 7
122 4 179 -5z m106 -295 c19 -10 50 -33 70 -52 19 -19 51 -44 70 -56 48 -31
70 -79 70 -154 0 -53 3 -63 20 -68 11 -3 29 -18 40 -32 17 -22 20 -40 20 -128
0 -97 -1 -104 -26 -129 -15 -14 -33 -26 -40 -26 -10 0 -8 6 6 20 15 15 20 33
20 70 0 37 -5 55 -20 70 -19 19 -27 60 -14 73 4 3 16 2 28 -4 20 -10 20 -9 -2
10 -12 10 -25 33 -28 49 -4 17 -15 34 -29 40 -16 7 -24 22 -28 52 -6 45 -28
84 -55 99 -15 8 -21 4 -35 -27 l-16 -37 20 24 c19 23 20 23 39 6 14 -13 20
-31 20 -62 l0 -43 -345 0 -345 0 0 39 c0 23 8 48 19 62 l19 24 21 -25 21 -25
-16 37 c-15 31 -20 35 -36 27 -27 -15 -49 -54 -55 -99 -4 -26 -13 -44 -24 -51
-18 -9 -19 -5 -19 65 0 70 2 78 31 110 16 19 39 38 51 42 11 3 39 25 62 49 27
28 61 50 100 64 86 32 97 28 117 -44 10 -33 20 -77 24 -97 5 -32 10 -38 30
-38 20 0 25 7 35 52 6 29 18 76 26 104 l15 52 52 -12 c29 -7 68 -21 87 -31z
m165 -325 c12 -5 -148 -9 -380 -9 -232 0 -392 4 -380 9 11 5 182 9 380 9 198
0 369 -4 380 -9z m-837 -83 c-18 -16 -22 -22 -8 -13 35 23 40 20 40 -17 0 -21
-8 -41 -20 -52 -15 -13 -20 -31 -20 -67 0 -35 6 -54 20 -68 30 -30 0 -24 -32
7 -27 26 -28 30 -28 128 0 108 11 138 54 154 18 7 22 4 24 -17 3 -20 -5 -33
-30 -55z m397 27 c10 -10 14 -25 11 -38 -3 -12 -6 -29 -6 -38 0 -30 -69 -97
-111 -108 -72 -20 -158 20 -185 86 -19 46 -18 91 4 103 9 6 74 11 144 11 105
0 129 -3 143 -16z m415 1 c17 -20 7 -91 -17 -124 -31 -42 -101 -73 -148 -66
-69 10 -123 65 -139 141 -12 56 6 64 158 64 107 0 136 -3 146 -15z m-294 -197
c30 -27 101 -58 135 -58 17 0 19 -9 19 -84 0 -46 -3 -92 -6 -101 -26 -67 -320
-80 -394 -18 -29 24 -30 27 -30 114 0 78 2 89 18 89 63 0 171 70 188 122 6 19
7 18 24 -8 9 -16 30 -41 46 -56z m354 -30 c-19 -122 -80 -207 -191 -263 -34
-18 -46 -20 -46 -10 0 8 7 17 14 19 25 10 43 73 43 149 l0 74 47 19 c27 11 51
21 55 22 5 2 8 -17 8 -42 0 -59 -32 -128 -84 -177 -22 -22 -35 -39 -29 -39 18
0 101 96 118 136 9 21 18 65 22 99 6 68 45 149 51 107 2 -12 -2 -55 -8 -94z
m-786 -15 c8 -76 34 -133 84 -185 53 -56 61 -46 10 11 -47 52 -68 104 -68 166
0 32 3 36 18 30 9 -4 33 -13 52 -20 l35 -13 6 -89 c4 -48 10 -96 14 -106 23
-55 184 -79 355 -52 19 3 29 3 22 -1 -6 -3 -9 -11 -5 -17 4 -6 0 -8 -9 -4 -9
3 -19 3 -22 -1 -23 -22 -236 -22 -236 1 0 5 -9 5 -20 2 -14 -4 -22 -1 -26 10
-4 9 -13 14 -21 11 -20 -8 -93 37 -143 87 -63 62 -82 107 -87 207 l-5 85 20
-28 c12 -17 22 -55 26 -94z m241 -329 c0 -16 4 -35 8 -41 5 -8 3 -13 -4 -13
-9 0 -9 -3 0 -14 9 -11 9 -15 0 -18 -7 -2 -6 -8 5 -17 14 -12 16 -12 10 3 -5
13 -2 15 12 10 17 -6 17 -5 -1 9 -17 13 -18 17 -5 33 9 11 10 15 3 10 -10 -5
-13 3 -13 28 0 34 12 47 25 26 7 -11 164 -8 183 3 6 5 17 5 22 2 6 -3 10 -1
10 4 0 6 5 11 10 11 6 0 10 -22 10 -49 l0 -48 98 -6 c93 -5 162 -20 162 -36 0
-4 -11 -13 -25 -19 -21 -10 -32 -8 -63 8 -20 11 -53 22 -72 25 -28 4 -30 3
-10 -3 41 -14 90 -42 90 -51 0 -15 -110 -51 -204 -67 -134 -24 -294 -5 -413
48 -44 19 -44 20 -24 34 11 8 38 21 58 29 26 9 31 14 17 14 -11 1 -43 -10 -69
-24 -45 -22 -51 -23 -72 -9 -13 8 -21 19 -18 23 9 16 93 31 169 31 l76 0 0 51
c0 36 4 49 13 46 6 -2 12 -17 12 -33z"/>
<path d="M1100 1655 c-42 -30 -122 -34 -160 -8 l-25 16 22 -24 c11 -13 26 -49
31 -79 l11 -55 -2 55 -2 55 40 0 40 0 -2 -55 -2 -55 12 58 c10 47 19 64 47 88
43 35 38 37 -10 4z"/>
<path d="M981 1474 c0 -11 3 -14 6 -6 3 7 2 16 -1 19 -3 4 -6 -2 -5 -13z"/>
<path d="M1042 1470 c0 -14 2 -19 5 -12 2 6 2 18 0 25 -3 6 -5 1 -5 -13z"/>
<path d="M834 1371 c-105 -48 -112 -155 -14 -206 46 -24 46 -17 1 15 -88 64
-76 132 34 188 50 26 34 28 -21 3z"/>
<path d="M1209 1350 c46 -34 64 -69 55 -106 -6 -25 -67 -84 -86 -84 -6 0 -9
-3 -6 -6 10 -9 65 24 87 52 24 30 28 89 8 115 -14 18 -77 59 -91 59 -5 0 10
-14 33 -30z"/>
<path d="M697 1039 c-15 -9 -18 -18 -12 -48 14 -79 66 -116 149 -108 41 4 55
10 83 41 26 28 33 45 33 75 0 32 -4 40 -22 45 -38 10 -212 6 -231 -5z m183
-54 c0 -20 -5 -25 -25 -25 -20 0 -25 5 -25 25 0 20 5 25 25 25 20 0 25 -5 25
-25z"/>
<path d="M1091 1041 c-24 -15 -7 -89 28 -124 24 -24 40 -31 83 -34 64 -5 106
17 131 70 22 46 21 74 -2 87 -24 12 -220 13 -240 1z m109 -56 c0 -20 -5 -25
-25 -25 -20 0 -25 5 -25 25 0 20 5 25 25 25 20 0 25 -5 25 -25z"/>
<path d="M905 709 c-9 -35 -2 -104 10 -104 13 0 19 90 6 112 -8 16 -10 15 -16
-8z"/>
<path d="M955 709 c-9 -35 -2 -104 10 -104 13 0 19 90 6 112 -8 16 -10 15 -16
-8z"/>
<path d="M1005 709 c-9 -35 -2 -104 10 -104 13 0 19 90 6 112 -8 16 -10 15
-16 -8z"/>
<path d="M1055 709 c-9 -35 -2 -104 10 -104 13 0 19 90 6 112 -8 16 -10 15
-16 -8z"/>
<path d="M1105 709 c-9 -35 -2 -104 10 -104 13 0 19 90 6 112 -8 16 -10 15
-16 -8z"/>
<path d="M1180 619 c0 -5 5 -7 10 -4 6 3 10 8 10 11 0 2 -4 4 -10 4 -5 0 -10
-5 -10 -11z"/>
<path d="M1215 560 c-3 -6 1 -7 9 -4 18 7 21 14 7 14 -6 0 -13 -4 -16 -10z"/>
<path d="M794 565 c11 -8 24 -15 30 -15 5 0 1 7 -10 15 -10 8 -23 14 -29 14
-5 0 -1 -6 9 -14z"/>
<path d="M965 452 c0 -23 5 -26 65 -36 14 -2 -5 -3 -42 -2 -37 1 -65 -1 -62
-6 3 -4 20 -8 37 -9 l32 -1 -30 -13 -30 -14 35 -1 c19 -1 54 -2 78 -3 48 -2
55 7 15 19 l-28 7 30 7 c17 4 22 8 13 9 -34 2 -19 26 16 26 23 0 32 -3 29 -12
-3 -7 -10 -10 -16 -6 -6 3 -7 1 -3 -6 4 -6 11 -9 15 -6 5 2 7 -7 5 -21 -1 -14
1 -23 4 -19 4 4 8 30 8 59 1 53 1 53 -18 34 -22 -22 -54 -20 -52 2 1 11 -12
15 -50 15 -47 0 -51 -2 -51 -23z m73 -9 c-10 -2 -28 -2 -40 0 -13 2 -5 4 17 4
22 1 32 -1 23 -4z m-11 -59 c-3 -3 -12 -4 -19 -1 -8 3 -5 6 6 6 11 1 17 -2 13
-5z"/>
<path d="M828 393 c7 -3 16 -2 19 1 4 3 -2 6 -13 5 -11 0 -14 -3 -6 -6z"/>
<path d="M959 349 c-9 -6 11 -9 56 -9 45 0 65 3 56 9 -8 5 -33 9 -56 9 -23 0
-48 -4 -56 -9z"/>
</g>
</svg>
